<?xml version="1.0" encoding="utf-8"?>
<!-- Generator: Adobe Illustrator 26.3.1, SVG Export Plug-In . SVG Version: 6.00 Build 0)  -->
<svg version="1.1" id="Capa_1" xmlns="http://www.w3.org/2000/svg" xmlns:xlink="http://www.w3.org/1999/xlink" x="0px" y="0px"
	 viewBox="0 0 256 256" style="enable-background:new 0 0 256 256;" xml:space="preserve">
<style type="text/css">
	.st0{fill:#00AAE5;}
	.st1{fill:#FFFFFF;}
	.st2{font-family:'CocoSharp-Bold';}
	.st3{font-size:19.0819px;}
	.st4{fill:#101F23;}
	.st5{font-size:21.7263px;}
	.st6{fill:#243772;}
	.st7{fill:#020203;}
	.st8{fill:#E15D2A;}
	.st9{fill:#D4232C;}
	.st10{fill:#ED972F;}
	.st11{fill:#CB0766;}
</style>
<rect x="0.4" y="-0.3" class="st0" width="256" height="256"/>
<g>
	<circle class="st1" cx="45.7" cy="209.6" r="25.6"/>
	<circle class="st1" cx="100.6" cy="209.6" r="25.6"/>
	<circle class="st1" cx="155.4" cy="209.6" r="25.6"/>
	<circle class="st1" cx="210.3" cy="209.6" r="25.6"/>
</g>
<g id="Layer_2_00000109724839547476986320000002073413390647808652_">
	<g id="Layer_1-2_00000142864253609268285000000009205128888130202243_">
		<g id="Layer_2-2_00000060744180247202148120000015854881618847099306_">
			<g id="Layer_1-2-2_00000107566260734873816640000016455300419724693434_">
				<path class="st1" d="M181.1,114.3L72.8,23.7v108.2h108.2V114.3z"/>
				<path class="st1" d="M181.1,23.7l-50.2,42l50.2,42V23.7z"/>
			</g>
		</g>
	</g>
</g>
<text transform="matrix(1 0 0 1 20.3696 169.5449)" class="st1 st2 st3">Pioneers in ecommerce</text>
<text transform="matrix(1 0 0 1 192.3547 217.7615)" class="st4 st2 st5">30+</text>
<path class="st6" d="M46.1,208.2c0,1.7,1.5,2.7,2.7,3.3c1.2,0.6,1.6,1,1.6,1.5c0,0.8-1,1.2-1.9,1.2c-1.6,0-2.5-0.4-3.2-0.8l-0.6,2.6
	c0.7,0.3,2.1,0.6,3.5,0.6c3.3,0,5.4-1.6,5.4-4.1c0-3.2-4.4-3.3-4.4-4.8c0-0.4,0.4-0.9,1.3-1c0.4-0.1,1.7-0.1,3.1,0.5l0.5-2.5
	c-0.7-0.3-1.7-0.5-2.9-0.5C48.3,204.2,46.2,205.8,46.1,208.2"/>
<path class="st6" d="M62.2,204.4h-2.7c-0.6,0-1.1,0.3-1.3,0.9l-4.7,11.1h3.3l0.6-1.8h4l0.4,1.8h2.9L62.2,204.4z M58.4,212.2l1.6-4.5
	l0.9,4.5H58.4z"/>
<polyline class="st6" points="42.2,204.4 39.6,216.4 42.7,216.4 45.3,204.4 42.2,204.4 "/>
<path class="st6" d="M37.6,204.4l-3.2,8.2l-1.3-7c-0.2-0.8-0.8-1.2-1.4-1.2h-5.3l-0.1,0.3c1.1,0.2,2.3,0.6,3.1,1
	c0.5,0.2,0.6,0.5,0.7,1.1l2.5,9.6h3.3l5-12H37.6"/>
<g>
	<path class="st7" d="M115.8,222.3L115.8,222.3L115.8,222.3L115.8,222.3l0.1,0L115.8,222.3L115.8,222.3L115.8,222.3z M115.8,222.3
		L115.8,222.3L115.8,222.3l0.1,0.1l-0.1,0l0.1,0.1h-0.1l-0.1-0.1h0v0.1h-0.1v-0.2L115.8,222.3L115.8,222.3z M115.8,222.6
		L115.8,222.6l0.1-0.1l0-0.1l0-0.1l0-0.1l0-0.1l-0.1,0l-0.1,0l-0.1,0l-0.1,0l0,0.1l0,0.1l0,0.1l0,0.1L115.8,222.6L115.8,222.6z
		 M115.8,222.1l0.1,0l0.1,0.1l0.1,0.1l0,0.1l0,0.1l-0.1,0.1l-0.1,0.1l-0.1,0l-0.1,0l-0.1-0.1l-0.1-0.1l0-0.1l0-0.1l0.1-0.1l0.1-0.1
		L115.8,222.1z M91.5,221.2c0-0.5,0.3-0.8,0.8-0.8c0.5,0,0.8,0.4,0.8,0.8s-0.3,0.8-0.8,0.8C91.8,222,91.5,221.7,91.5,221.2z
		 M93.6,221.2v-1.3h-0.6v0.3c-0.2-0.2-0.5-0.4-0.8-0.4c-0.7,0-1.3,0.6-1.3,1.4c0,0.8,0.6,1.4,1.3,1.4c0.4,0,0.6-0.1,0.8-0.4v0.3h0.6
		V221.2z M112.8,221.2c0-0.5,0.3-0.8,0.8-0.8c0.5,0,0.8,0.4,0.8,0.8s-0.3,0.8-0.8,0.8C113.1,222,112.8,221.7,112.8,221.2z
		 M114.9,221.2v-2.4h-0.6v1.4c-0.2-0.2-0.5-0.4-0.8-0.4c-0.7,0-1.3,0.6-1.3,1.4c0,0.8,0.6,1.4,1.3,1.4c0.4,0,0.6-0.1,0.8-0.4v0.3
		h0.6V221.2L114.9,221.2z M100.6,220.3c0.4,0,0.6,0.2,0.7,0.6H100C100,220.6,100.2,220.3,100.6,220.3z M100.7,219.8
		c-0.8,0-1.3,0.6-1.3,1.4c0,0.8,0.6,1.4,1.3,1.4c0.4,0,0.8-0.1,1.1-0.4l-0.3-0.4c-0.2,0.2-0.5,0.3-0.8,0.3c-0.4,0-0.7-0.2-0.8-0.6
		h1.9l0-0.2C101.9,220.4,101.4,219.8,100.7,219.8L100.7,219.8z M107.5,221.2c0-0.5,0.3-0.8,0.8-0.8c0.5,0,0.8,0.4,0.8,0.8
		s-0.3,0.8-0.8,0.8C107.8,222,107.5,221.7,107.5,221.2z M109.6,221.2v-1.3H109v0.3c-0.2-0.2-0.5-0.4-0.8-0.4c-0.7,0-1.3,0.6-1.3,1.4
		c0,0.8,0.6,1.4,1.3,1.4c0.4,0,0.6-0.1,0.8-0.4v0.3h0.6V221.2z M104.3,221.2c0,0.8,0.6,1.4,1.4,1.4c0.4,0,0.7-0.1,0.9-0.3l-0.3-0.5
		c-0.2,0.2-0.4,0.2-0.7,0.2c-0.5,0-0.8-0.3-0.8-0.8c0-0.5,0.3-0.8,0.8-0.8c0.2,0,0.5,0.1,0.7,0.2l0.3-0.5c-0.3-0.2-0.5-0.3-0.9-0.3
		C104.9,219.8,104.3,220.4,104.3,221.2z M111.6,219.8c-0.3,0-0.5,0.2-0.7,0.4v-0.3h-0.6v2.6h0.6V221c0-0.4,0.2-0.7,0.6-0.7
		c0.1,0,0.2,0,0.4,0.1l0.2-0.5C111.9,219.8,111.7,219.8,111.6,219.8L111.6,219.8z M96.4,220.1c-0.3-0.2-0.6-0.3-1.1-0.3
		c-0.7,0-1.1,0.3-1.1,0.8c0,0.4,0.3,0.7,0.9,0.8l0.3,0c0.3,0,0.5,0.1,0.5,0.3c0,0.2-0.2,0.3-0.6,0.3c-0.4,0-0.7-0.1-0.9-0.3
		l-0.3,0.4c0.3,0.2,0.7,0.3,1.1,0.3c0.8,0,1.2-0.4,1.2-0.9c0-0.5-0.3-0.7-0.9-0.8l-0.3,0c-0.2,0-0.4-0.1-0.4-0.3
		c0-0.2,0.2-0.3,0.5-0.3c0.3,0,0.7,0.1,0.8,0.2L96.4,220.1L96.4,220.1z M103.7,219.8c-0.3,0-0.5,0.2-0.7,0.4v-0.3h-0.6v2.6h0.6V221
		c0-0.4,0.2-0.7,0.6-0.7c0.1,0,0.2,0,0.4,0.1l0.2-0.5C104,219.8,103.8,219.8,103.7,219.8L103.7,219.8z M98.9,219.9H98v-0.8h-0.6v0.8
		h-0.5v0.5h0.5v1.2c0,0.6,0.2,1,0.9,1c0.2,0,0.5-0.1,0.7-0.2l-0.2-0.5c-0.2,0.1-0.4,0.1-0.5,0.1c-0.3,0-0.4-0.2-0.4-0.4v-1.2h0.9
		C98.9,220.4,98.9,219.9,98.9,219.9z M90.4,222.5v-1.7c0-0.6-0.4-1-1-1c-0.3,0-0.7,0.1-0.9,0.5c-0.2-0.3-0.5-0.5-0.9-0.5
		c-0.3,0-0.6,0.1-0.8,0.4v-0.3h-0.6v2.6h0.6v-1.5c0-0.5,0.3-0.7,0.6-0.7c0.4,0,0.6,0.2,0.6,0.7v1.5h0.6v-1.5c0-0.5,0.3-0.7,0.6-0.7
		c0.4,0,0.6,0.2,0.6,0.7v1.5L90.4,222.5L90.4,222.5z"/>
	<path class="st8" d="M96.2,215.4h8.6v-15.6h-8.6V215.4z"/>
	<path class="st9" d="M96.8,207.6c0-3.2,1.5-6,3.7-7.8c-1.7-1.3-3.8-2.1-6.1-2.1c-5.4,0-9.8,4.5-9.8,9.9s4.4,9.9,9.8,9.9
		c2.3,0,4.4-0.8,6.1-2.1C98.2,213.6,96.8,210.7,96.8,207.6"/>
	<path class="st10" d="M116.1,213.7v-0.4H116l-0.1,0.3l-0.1-0.3h-0.1v0.4h0.1v-0.3l0.1,0.3h0.1l0.1-0.3L116.1,213.7L116.1,213.7
		L116.1,213.7z M115.5,213.7v-0.3h0.1v-0.1h-0.3v0.1h0.1L115.5,213.7L115.5,213.7L115.5,213.7z M116.4,207.6c0,5.5-4.4,9.9-9.8,9.9
		c-2.3,0-4.4-0.8-6.1-2.1c2.3-1.8,3.7-4.6,3.7-7.8c0-3.2-1.5-6-3.7-7.8c1.7-1.3,3.8-2.1,6.1-2.1C112,197.6,116.4,202.1,116.4,207.6z
		"/>
</g>
<g>
	<path class="st1" d="M139,195.4v28.5c0,1.4,1.1,2.5,2.5,2.5h17c12.9,0,18.4-7.2,18.4-16.8c0-9.5-5.6-16.7-18.4-16.7h-17
		C140.1,192.9,139,194,139,195.4C139,195.4,139,195.4,139,195.4z"/>
	<path class="st7" d="M158.5,224.1h-14.8c-1.3,0-2.4-1.1-2.4-2.4v-24.1c0-1.3,1.1-2.4,2.4-2.4h14.8c14,0,16.1,9,16.1,14.4
		C174.7,218.9,168.9,224.1,158.5,224.1z M143.7,196c-0.9,0-1.6,0.7-1.6,1.6v24.1c0,0.9,0.7,1.6,1.6,1.6h14.8
		c9.9,0,15.3-4.9,15.3-13.7c0-11.8-9.6-13.6-15.3-13.6H143.7z"/>
	<path class="st11" d="M150.4,199.9v21h9.2c8.3,0,11.9-4.7,11.9-11.3c0-6.4-3.6-11.3-11.9-11.3H152
		C151.1,198.3,150.4,199,150.4,199.9L150.4,199.9z"/>
	<polygon class="st1" points="167.9,206.8 167.9,210.9 170.3,210.9 170.3,211.8 166.8,211.8 166.8,206.8 	"/>
	<path class="st1" d="M164.2,206.8l1.9,5h-1.1l-0.4-1.1h-1.9l-0.4,1.1h-1.1l1.9-5H164.2z M164.3,209.8l-0.6-1.8h0l-0.7,1.8H164.3z"
		/>
	<polygon class="st1" points="160.4,206.8 160.4,207.7 157.8,207.7 157.8,208.8 160.2,208.8 160.2,209.6 157.8,209.6 157.8,210.9 
		160.5,210.9 160.5,211.8 156.7,211.8 156.7,206.8 	"/>
	<path class="st1" d="M153.7,206.8c0.3,0,0.6,0,0.9,0.2c0.3,0.1,0.5,0.3,0.7,0.5c0.2,0.2,0.4,0.5,0.5,0.8c0.1,0.4,0.2,0.7,0.2,1.1
		c0,0.3,0,0.7-0.1,1c-0.1,0.3-0.2,0.6-0.4,0.8c-0.2,0.2-0.4,0.4-0.7,0.5c-0.3,0.1-0.7,0.2-1,0.2h-2.2v-5H153.7z M153.6,210.9
		c0.2,0,0.3,0,0.5-0.1c0.2-0.1,0.3-0.1,0.4-0.3c0.1-0.1,0.2-0.3,0.3-0.5c0.1-0.2,0.1-0.5,0.1-0.7c0-0.2,0-0.5-0.1-0.7
		c0-0.2-0.1-0.4-0.2-0.5c-0.1-0.1-0.3-0.3-0.4-0.3c-0.2-0.1-0.5-0.1-0.7-0.1h-0.8v3.2L153.6,210.9z"/>
	<path class="st7" d="M146.3,212.9L146.3,212.9c1,0,1.8,0.8,1.8,1.8c0,0,0,0,0,0l0,0v6.3l0,0c-1.9,0-3.5-1.6-3.5-3.5v-2.7
		C144.5,213.7,145.3,212.9,146.3,212.9L146.3,212.9z"/>
	<circle class="st7" cx="146.3" cy="209.3" r="2.3"/>
</g>
</svg>
