<?xml version="1.0" encoding="UTF-8"?>
<svg width="250px" height="250px" viewBox="0 0 250 250" version="1.1" xmlns="http://www.w3.org/2000/svg" xmlns:xlink="http://www.w3.org/1999/xlink">
    <!-- Generator: Sketch 60.1 (88133) - https://sketch.com -->
    <title>MultiSafepa social media icon@1,5x</title>
    <desc>Created with Sketch.</desc>
    <g id="MultiSafepa-social-media-icon" stroke="none" stroke-width="1" fill="none" fill-rule="evenodd">
        <g id="Group-27">
            <polygon id="Fill-1" fill="#006193" points="0 250 250 250 250 0 0 0"></polygon>
            <g id="Group-26" transform="translate(9.000000, 103.000000)" fill="#FFFFFF">
                <path d="M16.5879,22.7783 L19.3799,10.3763 C20.2339,6.8253 20.3689,6.1073 20.9999,2.9173 L21.2699,2.6463 C25.0899,2.6473 26.2139,2.6013 30.5729,2.5133 L30.8889,2.7813 C30.9309,6.5113 30.9759,7.4993 31.2009,12.4003 L31.4659,19.3683 C31.8669,27.7723 31.9599,29.7503 32.2279,34.1073 L32.0019,34.3793 C28.6759,34.3313 27.6419,34.3793 24.9449,34.5113 L24.6759,34.2403 C24.6329,28.6203 24.6329,27.9023 24.4999,21.6573 L24.4139,9.6113 L20.9929,24.3113 C19.8699,29.2983 19.3729,31.5453 18.8799,34.1063 L18.5619,34.3773 C16.2699,34.3303 15.5059,34.3773 13.1239,34.5073 L12.8549,34.2403 C12.2269,31.3653 11.4649,27.9023 10.7459,24.7573 L7.4249,9.9663 L7.1519,20.3053 C6.9239,29.6523 6.9239,30.6423 6.9219,34.1013 L6.7009,34.3753 C4.2729,34.3733 3.4649,34.3733 0.8129,34.5063 L0.5869,34.2373 C0.9949,26.8673 1.0399,26.0553 1.3079,21.2023 L1.7169,11.3143 C1.8519,7.0903 1.8989,4.9763 1.9429,2.9103 L2.2129,2.6393 C6.1709,2.6403 7.3829,2.6403 11.7439,2.5093 L12.0119,2.7793 C12.5049,5.1593 12.5529,5.2983 13.6289,10.0143 L16.5879,22.7783 Z" id="Fill-2"></path>
                <path d="M47.4644,31.8252 C46.2064,33.1692 44.2714,34.8372 41.2604,34.834204 C36.4044,34.8322 35.9594,30.4722 35.8224,29.3922 C35.6884,28.0452 35.6884,26.5572 35.6894,23.9082 L35.6904,21.5272 C35.7394,15.0562 35.6934,13.9782 35.5584,10.9222 L35.7834,10.6522 C38.6154,10.6542 39.3354,10.6552 42.3474,10.3872 L42.6144,10.6542 C42.6144,12.2262 42.5224,19.9122 42.5224,21.6212 C42.5214,22.6982 42.5214,26.3842 42.6554,27.1952 C42.7024,27.6872 42.9704,29.3042 44.8114,29.3032 C46.1134,29.3052 46.7904,28.5852 47.3734,28.0042 L47.3744,24.3172 C47.3744,23.4642 47.2424,14.6562 47.1104,10.9232 L47.3784,10.6562 C50.3454,10.6112 51.1094,10.5682 53.9854,10.3892 L54.2544,10.6562 C54.2094,13.4442 54.1624,15.0192 54.1624,19.2852 C54.1624,20.2282 54.1604,26.0292 54.2034,28.6332 C54.2484,31.1502 54.2924,32.7232 54.3374,34.1162 L54.1124,34.3882 C50.9214,34.3402 50.3824,34.3852 47.5934,34.4722 L47.3694,34.2942 L47.4644,31.8252 Z" id="Fill-4"></path>
                <path d="M65.3496,34.3926 C62.3836,34.3446 61.5296,34.3436 58.3866,34.5236 L58.1586,34.2546 C58.2506,31.4666 58.3406,28.4556 58.3436,22.0736 C58.3436,17.9826 58.3456,13.8026 58.3026,9.7156 C58.2156,5.2206 58.0786,3.6906 57.9456,1.5356 L58.1706,1.2636 C61.1806,0.7736 62.2616,0.5946 65.0456,0.0056 L65.3176,0.2766 C65.2686,2.8856 65.2686,4.5446 65.2676,8.2776 C65.2676,9.7626 65.3096,19.8726 65.3516,25.8046 C65.4406,29.7586 65.5296,31.9616 65.6196,34.1216 L65.3496,34.3926 Z" id="Fill-6"></path>
                <path d="M79.8286,15.6045 C77.8496,15.5635 77.8066,15.5615 76.7246,15.5615 L76.7246,21.2255 C76.6796,22.4375 76.6796,24.0565 76.6776,25.2685 C76.6776,27.5635 76.7216,29.7655 78.7436,29.7655 C79.4636,29.7655 79.9566,29.4945 80.2276,29.3155 L80.4956,29.5395 C80.3606,31.5175 80.3166,31.8315 80.2716,33.9455 L80.0006,34.3035 C78.9676,34.6175 77.7086,34.7515403 76.3146,34.7515403 C75.3256,34.7525 72.4936,34.7505 70.9686,32.7275 C69.8446,31.2015 69.8446,29.2195 69.8906,26.0315 L69.8916,23.3345 C69.8916,22.2115 69.9366,16.7275 69.9386,15.4715 C69.1306,15.4695 68.6786,15.5135 67.7376,15.5595 L67.5136,15.2875 C67.6016,13.2665 67.6016,13.2665 67.6936,10.8865 L67.9626,10.6175 C68.8176,10.6625 69.0396,10.6625 69.9856,10.6175 C69.9856,9.8075 69.9856,9.3585 69.9396,5.1315 L70.1656,4.8185 C73.1346,4.1005 73.9896,3.8285 76.5956,3.0215 L76.9106,3.2485 C76.8186,5.2265 76.7736,5.7655 76.7276,10.7535 C78.3436,10.7065 78.7046,10.7065 80.0086,10.6195 L80.2796,10.8885 C80.1426,12.9575 80.1426,13.2275 80.0526,15.2925 L79.8286,15.6045 Z" id="Fill-8"></path>
                <path d="M89.1348,6.3965 C86.4368,6.7105 85.6298,6.7995 82.8868,7.2925 L82.6158,7.0225 C82.6638,4.6435 82.6168,4.0575 82.5308,1.5845 L82.7988,1.3155 C85.9008,1.0025 86.4368,0.9125 89.1798,0.5085 L89.4508,0.7775 C89.3598,3.3405 89.4048,4.0145 89.4028,6.1265 L89.1348,6.3965 Z M89.7998,34.3975 C86.9228,34.3525 85.8418,34.3505 82.6998,34.5315 L82.4268,34.2605 C82.5638,31.3845 82.6568,28.5515 82.6568,23.4735 C82.6598,16.3735 82.4348,13.9005 82.2568,11.5195 L82.4798,11.2505 C85.6288,10.8005 86.4368,10.6645 89.5348,9.9925 L89.8058,10.2625 C89.7608,10.8905 89.7598,11.5215 89.7598,12.1055 C89.7148,14.8035 89.6678,17.4535 89.6688,20.1535 C89.6678,24.8265 89.7548,29.4565 90.0698,34.1275 L89.7998,34.3975 Z" id="Fill-10"></path>
                <path d="M109.2217,9.3687 C108.0967,8.4237 106.7057,7.2987 104.1897,7.2987 C101.8957,7.2987 100.4137,8.6457 100.4127,10.5807 C100.4127,12.0197 101.1297,13.0077 102.5717,14.0847 C103.0177,14.4887 105.4457,16.1077 105.9837,16.4677 C108.8137,18.4477 111.1037,20.5147 111.1027,25.0077 C111.1017,28.0207 110.0247,30.3137 108.7637,31.7487 C106.4257,34.4037 103.2367,34.9847 100.1797,34.9837028 C98.4237,34.9847 95.7757,34.7137 93.4387,33.5447 L93.1697,33.0957 C93.2147,32.1527 93.3037,31.1617 93.3507,30.1717 C93.3977,29.3197 93.4397,28.4627 93.4407,27.6127 L93.8007,27.4777 C95.3277,28.9167 97.3047,29.6837 99.3727,29.6817 C102.7417,29.6837 103.6407,27.3017 103.6407,25.7707 C103.6447,23.7957 102.3837,22.7167 100.2277,21.2327 L98.3407,19.9257 C96.0037,18.2627 93.0827,16.1967 93.0836997,11.2517 C93.0857,8.0167 94.2997,5.8157 95.6047,4.5567 C97.7177,2.4907 100.5477,2.0397 103.0657,2.04268517 C105.3557,2.0437 107.6937,2.4487 109.7627,3.4817 L109.9407,3.8427 C109.8507,4.7857 109.7617,5.7287 109.7147,6.6727 L109.5797,9.2367 L109.2217,9.3687 Z" id="Fill-12"></path>
                <path d="M124.2744,22.2256 C122.3884,22.4966 119.4214,22.9886 119.4194,26.6296 C119.4194,28.5186 120.4074,29.7306 121.8464,29.7306 C123.1504,29.7296 123.9144,28.9226 124.2724,28.5196 L124.2744,22.2256 Z M124.3594,32.5196 C123.6414,33.1906 121.9794,34.8086 119.0104,34.8096 C115.6404,34.8086 112.9904,32.2016 112.9914,27.3916 C112.9944,20.6096 118.9264,19.0766 124.2294,18.0906 C124.2294,16.5646 124.2314,14.8536 121.0394,14.8536 C118.0714,14.8526 116.2754,16.0236 115.2884,16.6536 L114.9724,16.4716 C115.1074,14.4026 115.1524,13.8216 115.1984,11.9326 L115.4694,11.5736 C118.0764,10.4046 121.4464,10.0916 123.1114,10.0925976 C124.8634,10.0925976 128.4134,10.3626 130.0744,13.2396 C131.0644,14.9926 131.0634,17.0616 130.9744,20.7496 L130.9264,24.2976 C130.8784,28.0716 130.9244,30.6356 131.2824,34.1386 L130.9674,34.4126 C127.9574,34.3676 127.2834,34.4106 124.6794,34.4976 L124.3604,34.2736 L124.3594,32.5196 Z" id="Fill-14"></path>
                <path d="M145.4453,15.625 C144.1413,15.58 143.4213,15.583 142.6143,15.58 C142.6093,26.187 142.7913,30.41 142.9223,34.186 L142.6523,34.41 C139.4193,34.412 138.7453,34.412 135.7763,34.543 L135.5523,34.274 C135.5523,33.735 135.5553,33.151 135.6013,32.61 C135.6873,29.468 135.6913,19.531 135.6913,15.532 C134.7043,15.532 134.4353,15.577 133.4433,15.624 L133.2213,15.353 C133.3113,13.689 133.3543,13.062 133.4473,10.904 L133.7173,10.637 C134.5723,10.723 134.7963,10.725 135.6933,10.725 C135.6513,7.219 135.6053,4.343 137.0453,2.501 C138.8423,0.167 142.1693,0.168 143.2013,0.167 C144.7763,0.167 145.8113,0.39 146.3463,0.482 L146.5263,0.75 C146.3453,2.728 146.3003,3.224 146.2563,5.424 L145.9423,5.693 C145.6273,5.513 145.3553,5.378 144.8613,5.378 C144.0083,5.378 143.4273,5.828 143.1113,6.326 C142.5693,7.128 142.5713,7.983 142.5693,10.771 C143.9633,10.771 144.4123,10.772 145.7163,10.683 L145.9853,10.952 C145.8053,12.93 145.8033,13.379 145.7163,15.358 L145.4453,15.625 Z" id="Fill-16"></path>
                <path d="M159.0596,19.6748 C159.0616,18.9548 159.0616,18.1918 158.9256,17.3808 C158.7026,15.8998 157.9866,14.6838 156.6806,14.6838 C156.0506,14.6858 154.1636,14.9528 154.0266,19.6708 L159.0596,19.6748 Z M154.0746,23.9418 C154.1606,27.8978 156.3196,29.9188 159.6896,29.9208 C162.3836,29.9208 163.9586,28.7998 164.5836,28.3058 L164.9026,28.4858 C164.7636,30.4188 164.7186,31.2718 164.6716,33.1558 L164.4936,33.5198 C163.5486,34.3268 160.7206,34.9558 158.1116,34.9558 C150.3796,34.9538 147.2796,30.0538 147.282598,22.5008 C147.2846,20.8858 147.4166,19.2198 147.8236,17.6038 C149.1766,12.1218 152.9536,10.0988 156.9036,10.0978 C158.2106,10.1008 159.5136,10.3248 160.7256,10.8628 C164.9506,12.7558 165.6676,16.9798 165.668616,21.3398 C165.6696,22.1958 165.6226,23.0468 165.6236,23.6768 L165.3056,23.9458 L154.0746,23.9418 Z" id="Fill-18"></path>
                <path d="M175.8213,29.7021 C176.0473,29.7471 176.2243,29.7451 176.4493,29.7471 L176.8083,29.7471 C180.7653,29.3441 180.8553,23.9951 180.8583,21.7921 C180.8583,20.5811 180.7683,18.5091 180.0953,17.0301 C179.9583,16.7131 179.3303,15.4101 177.9373,15.4101 C176.9473,15.4101 176.2713,16.0831 175.7313,16.6211 C175.7343,21.3401 175.7793,23.5021 175.8213,29.7021 L175.8213,29.7021 Z M175.5553,10.2861 C175.5103,11.3201 175.5103,11.4561 175.5113,12.5351 C176.5473,11.5901 178.1683,10.1521 180.7283,10.1521 C183.4693,10.1521 185.1303,11.8201 186.0723,13.3011 C187.6463,15.7261 187.9613,19.0551 187.9643,21.2571 C187.9583,24.4461 187.5053,31.3671 181.2143,33.8411 C179.2793,34.5581 178.1113,34.5121 175.6823,34.5111 C175.7273,37.7901 175.8613,41.8371 175.9523,43.6331 L175.6813,43.9021 C174.7823,43.8571 173.8843,43.8111 173.0313,43.8111 C171.6353,43.8111 170.4723,43.9001 168.8493,43.9941 L168.5813,43.7211 C168.7163,40.1271 168.7613,36.5301 168.7643,32.9801 C168.7673,25.8361 168.7693,18.6421 168.1413,11.5421 L168.3663,11.2741 C171.6483,10.8231 172.5013,10.6451 175.2453,10.0621 L175.5553,10.2861 Z" id="Fill-20"></path>
                <path d="M201.0361,22.25 C199.1491,22.518 196.1821,23.012 196.184097,26.653 C196.1821,28.54 197.1711,29.754 198.6081,29.755 C199.9121,29.755 200.6761,28.945 201.0361,28.542 L201.0361,22.25 Z M201.1211,32.54 C200.4061,33.213 198.7411,34.83 195.7771,34.83 C192.4041,34.83 189.7531,32.223 189.7521,27.412 C189.7521,20.627 195.6911,19.1 200.9911,18.112 C200.9911,16.585 200.9931,14.878 197.8061,14.876 C194.8361,14.876 193.0431,16.045 192.0531,16.673 L191.7391,16.492 C191.8721,14.423 191.9211,13.842 191.9601,11.955 L192.2331,11.595 C194.8361,10.427 198.2151,10.113 199.8751,10.113 C201.6271,10.115 205.1751,10.385 206.8431,13.263 C207.8271,15.014 207.8261,17.084 207.7361,20.769 L207.6881,24.318 C207.6471,28.091 207.6891,30.656 208.0461,34.159 L207.7321,34.433 C204.7221,34.385 204.0491,34.433 201.4421,34.519 L201.1261,34.292 L201.1211,32.54 Z" id="Fill-22"></path>
                <path d="M214.1992,43.6934 C215.3252,41.0864 215.8172,39.6004 217.2572,35.2424 C215.2372,28.1424 211.6022,16.5894 209.5822,11.0134 L209.8032,10.7464 C213.0842,10.7014 213.7162,10.6574 216.9042,10.4344 L217.2652,10.7024 C217.7572,13.0874 217.8942,13.7594 219.1052,18.6594 L220.8112,25.4474 L222.6582,18.2104 C223.5082,14.9754 223.5552,14.7064 224.4112,10.8874 L224.6802,10.6174 C227.1952,10.6654 227.8272,10.6644 230.2552,10.5294 L230.4322,10.7964 C229.2652,14.3474 228.9942,15.3374 226.3392,24.0094 L224.0922,31.3824 C222.2922,37.6274 221.5272,40.3674 220.8062,43.6034 L220.4932,43.8734 C217.5732,43.8734 216.9882,43.8734 214.4222,43.9644 L214.1992,43.6934 Z" id="Fill-24"></path>
            </g>
        </g>
    </g>
</svg>